<svg width="12" height="13" viewBox="0 0 12 13" fill="none" xmlns="http://www.w3.org/2000/svg">
<path d="M10.375 1.75H9.0625V1.3125C9.0625 1.19647 9.01641 1.08519 8.93436 1.00314C8.85231 0.921094 8.74103 0.875 8.625 0.875C8.50897 0.875 8.39769 0.921094 8.31564 1.00314C8.23359 1.08519 8.1875 1.19647 8.1875 1.3125V1.75H3.8125V1.3125C3.8125 1.19647 3.76641 1.08519 3.68436 1.00314C3.60231 0.921094 3.49103 0.875 3.375 0.875C3.25897 0.875 3.14769 0.921094 3.06564 1.00314C2.98359 1.08519 2.9375 1.19647 2.9375 1.3125V1.75H1.625C1.39294 1.75 1.17038 1.84219 1.00628 2.00628C0.842187 2.17038 0.75 2.39294 0.75 2.625V11.375C0.75 11.6071 0.842187 11.8296 1.00628 11.9937C1.17038 12.1578 1.39294 12.25 1.625 12.25H10.375C10.6071 12.25 10.8296 12.1578 10.9937 11.9937C11.1578 11.8296 11.25 11.6071 11.25 11.375V2.625C11.25 2.39294 11.1578 2.17038 10.9937 2.00628C10.8296 1.84219 10.6071 1.75 10.375 1.75ZM2.9375 2.625V3.0625C2.9375 3.17853 2.98359 3.28981 3.06564 3.37186C3.14769 3.45391 3.25897 3.5 3.375 3.5C3.49103 3.5 3.60231 3.45391 3.68436 3.37186C3.76641 3.28981 3.8125 3.17853 3.8125 3.0625V2.625H8.1875V3.0625C8.1875 3.17853 8.23359 3.28981 8.31564 3.37186C8.39769 3.45391 8.50897 3.5 8.625 3.5C8.74103 3.5 8.85231 3.45391 8.93436 3.37186C9.01641 3.28981 9.0625 3.17853 9.0625 3.0625V2.625H10.375V4.375H1.625V2.625H2.9375ZM10.375 11.375H1.625V5.25H10.375V11.375ZM6.875 8.3125C6.875 8.48556 6.82368 8.65473 6.72754 8.79862C6.63139 8.94252 6.49473 9.05467 6.33485 9.12089C6.17496 9.18712 5.99903 9.20445 5.8293 9.17069C5.65956 9.13693 5.50365 9.05359 5.38128 8.93122C5.25891 8.80885 5.17557 8.65294 5.14181 8.4832C5.10805 8.31347 5.12538 8.13754 5.19161 7.97765C5.25783 7.81777 5.36998 7.68111 5.51388 7.58496C5.65777 7.48882 5.82694 7.4375 6 7.4375C6.23206 7.4375 6.45462 7.52969 6.61872 7.69378C6.78281 7.85788 6.875 8.08044 6.875 8.3125Z" fill="#C3C3C4"/>
</svg>
